<svg width="114" height="126" viewBox="0 0 114 126" fill="none" xmlns="http://www.w3.org/2000/svg">
<g filter="url(#filter0_bd_176_3583)">
<path d="M53.0495 1.24344C55.4994 -0.147844 58.5006 -0.147842 60.9505 1.24344L105.778 26.7004C108.281 28.1218 109.828 30.7784 109.828 33.6569L109.828 84.3431C109.828 87.2216 108.281 89.8782 105.778 91.2996L60.9505 116.757C58.5006 118.148 55.4994 118.148 53.0495 116.757L8.22193 91.2996C5.71887 89.8782 4.17245 87.2216 4.17245 84.3431L4.17245 33.6569C4.17245 30.7784 5.71888 28.1218 8.22193 26.7004L53.0495 1.24344Z" fill="url(#paint0_linear_176_3583)" fill-opacity="0.3" shape-rendering="crispEdges"/>
<path d="M53.5433 2.11301C55.687 0.895634 58.313 0.895635 60.4567 2.11301L105.284 27.5699C107.474 28.8137 108.828 31.1382 108.828 33.6569L108.828 84.3431C108.828 86.8618 107.474 89.1863 105.284 90.4301L60.4567 115.887C58.313 117.104 55.687 117.104 53.5433 115.887L8.71574 90.4301C6.52557 89.1863 5.17245 86.8618 5.17245 84.3431L5.17245 33.6569C5.17245 31.1382 6.52558 28.8137 8.71575 27.5699L53.5433 2.11301Z" stroke="url(#paint1_linear_176_3583)" stroke-opacity="0.5" stroke-width="2" shape-rendering="crispEdges"/>
</g>
<defs>
<filter id="filter0_bd_176_3583" x="-7.82812" y="-11.7998" width="129.656" height="141.6" filterUnits="userSpaceOnUse" color-interpolation-filters="sRGB">
<feFlood flood-opacity="0" result="BackgroundImageFix"/>
<feGaussianBlur in="BackgroundImageFix" stdDeviation="6"/>
<feComposite in2="SourceAlpha" operator="in" result="effect1_backgroundBlur_176_3583"/>
<feColorMatrix in="SourceAlpha" type="matrix" values="0 0 0 0 0 0 0 0 0 0 0 0 0 0 0 0 0 0 127 0" result="hardAlpha"/>
<feOffset dy="4"/>
<feGaussianBlur stdDeviation="2"/>
<feComposite in2="hardAlpha" operator="out"/>
<feColorMatrix type="matrix" values="0 0 0 0 0 0 0 0 0 0 0 0 0 0 0 0 0 0 0.1 0"/>
<feBlend mode="normal" in2="effect1_backgroundBlur_176_3583" result="effect2_dropShadow_176_3583"/>
<feBlend mode="normal" in="SourceGraphic" in2="effect2_dropShadow_176_3583" result="shape"/>
</filter>
<linearGradient id="paint0_linear_176_3583" x1="92.8428" y1="100.214" x2="27.9935" y2="14.6806" gradientUnits="userSpaceOnUse">
<stop stop-color="#00B7EC"/>
<stop offset="1" stop-color="#00B7EC" stop-opacity="0.33"/>
</linearGradient>
<linearGradient id="paint1_linear_176_3583" x1="13.2622" y1="11.6042" x2="79.4345" y2="119.98" gradientUnits="userSpaceOnUse">
<stop stop-color="white"/>
<stop offset="1" stop-opacity="0"/>
</linearGradient>
</defs>
</svg>
